# xmcd
#
# Track frame offsets: 
#        150
#        14757
#        33080
#        44865
#        58800
#        77435
#        89977
#        106102
#        119402
#        137465
#
# Disc length: 1995 seconds
#
# Revision: 7
# Processed by: cddbd v1.5.2PL0 Copyright (c) Steve Scherf et al.
# Submitted via: ExactAudioCopy v1.0b3
#
DISCID=8707c90a
DTITLE=Jennings, Waylon with Willie Nelson, Johnny Cash and Kris Krist
DTITLE=offerson - Highwayman 2
DYEAR=1990
DGENRE=Country
TTITLE0=Silver Stallion
TTITLE1=Born And Raised In Black And White
TTITLE2=Two Stories Wide
TTITLE3=We're All In Your Corner
TTITLE4=American Remains
TTITLE5=Anthem '84
TTITLE6=Angels Love Bad Men
TTITLE7=Songs That Make A Difference
TTITLE8=Living Legend
TTITLE9=Texas
EXTD=YEAR: 1990
EXTT0=
EXTT1=
EXTT2=
EXTT3=
EXTT4=
EXTT5=
EXTT6=
EXTT7=
EXTT8=
EXTT9=
PLAYORDER=
